<?xml version="1.0" standalone="no"?>
<svg viewBox="0 0 200 200" xmlns="http://www.w3.org/2000/svg">
  <path fill="#FF0066" d="M32.5,-58.8C44.6,-49.3,58.5,-45.6,61.5,-36.7C64.5,-27.9,56.5,-13.9,54.9,-1C53.2,12,57.8,24,57.4,37.4C57.1,50.9,51.8,65.7,41.4,72.6C31,79.4,15.5,78.3,-0.3,78.8C-16,79.2,-32,81.2,-46.2,76.6C-60.4,71.9,-72.8,60.5,-77.8,46.6C-82.9,32.8,-80.6,16.4,-72.9,4.5C-65.2,-7.5,-52,-14.9,-43,-22C-34.1,-29.1,-29.3,-35.8,-22.8,-48.5C-16.4,-61.2,-8.2,-79.9,1,-81.7C10.2,-83.4,20.4,-68.3,32.5,-58.8Z" transform="translate(100 100)" />
</svg>
