<svg xmlns="http://www.w3.org/2000/svg" version="1.1" xmlns:xlink="http://www.w3.org/1999/xlink" xmlns:svgjs="http://svgjs.com/svgjs" width="1440" height="560" preserveAspectRatio="none" viewBox="0 0 1440 560"><g mask="url(&quot;#SvgjsMask1002&quot;)" fill="none"><path d="M-93.84 367.66L-93.84 367.66" stroke="#132e65" stroke-width="1.5"></path><path d="M-93.84 367.66L-62.68 492.82" stroke="#132e65" stroke-width="1.5"></path><path d="M-93.84 367.66L58.8 403.57" stroke="#132e65" stroke-width="1.5"></path><path d="M-93.84 367.66L83.02 555.07" stroke="#132e65" stroke-width="1.5"></path><path d="M-93.84 367.66L-76.48 638.9" stroke="#132e65" stroke-width="1.5"></path><path d="M-93.84 367.66L247.01 387.41" stroke="#132e65" stroke-width="1.5"></path><path d="M-62.68 492.82L-62.68 492.82" stroke="#132e65" stroke-width="1.5"></path><path d="M-62.68 492.82L-76.48 638.9" stroke="#132e65" stroke-width="1.5"></path><path d="M-62.68 492.82L58.8 403.57" stroke="#132e65" stroke-width="1.5"></path><path d="M-62.68 492.82L83.02 555.07" stroke="#132e65" stroke-width="1.5"></path><path d="M-62.68 492.82L97.89 674.03" stroke="#132e65" stroke-width="1.5"></path><path d="M-76.48 638.9L-76.48 638.9" stroke="#132e65" stroke-width="1.5"></path><path d="M58.8 403.57L58.8 403.57" stroke="#132e65" stroke-width="1.5"></path><path d="M58.8 403.57L83.02 555.07" stroke="#132e65" stroke-width="1.5"></path><path d="M83.02 555.07L83.02 555.07" stroke="#132e65" stroke-width="1.5"></path><path d="M83.02 555.07L97.89 674.03" stroke="#132e65" stroke-width="1.5"></path><path d="M83.02 555.07L234.84 534.04" stroke="#132e65" stroke-width="1.5"></path><path d="M97.89 674.03L97.89 674.03" stroke="#132e65" stroke-width="1.5"></path><path d="M97.89 674.03L246.78 668.47" stroke="#132e65" stroke-width="1.5"></path><path d="M97.89 674.03L-76.48 638.9" stroke="#132e65" stroke-width="1.5"></path><path d="M97.89 674.03L234.84 534.04" stroke="#132e65" stroke-width="1.5"></path><path d="M247.01 387.41L247.01 387.41" stroke="#132e65" stroke-width="1.5"></path><path d="M247.01 387.41L342.52 393.89" stroke="#132e65" stroke-width="1.5"></path><path d="M247.01 387.41L234.84 534.04" stroke="#132e65" stroke-width="1.5"></path><path d="M247.01 387.41L356.98 521.22" stroke="#132e65" stroke-width="1.5"></path><path d="M247.01 387.41L58.8 403.57" stroke="#132e65" stroke-width="1.5"></path><path d="M247.01 387.41L83.02 555.07" stroke="#132e65" stroke-width="1.5"></path><path d="M247.01 387.41L246.78 668.47" stroke="#132e65" stroke-width="1.5"></path><path d="M234.84 534.04L234.84 534.04" stroke="#132e65" stroke-width="1.5"></path><path d="M234.84 534.04L356.98 521.22" stroke="#132e65" stroke-width="1.5"></path><path d="M234.84 534.04L246.78 668.47" stroke="#132e65" stroke-width="1.5"></path><path d="M234.84 534.04L342.52 393.89" stroke="#132e65" stroke-width="1.5"></path><path d="M246.78 668.47L246.78 668.47" stroke="#132e65" stroke-width="1.5"></path><path d="M246.78 668.47L411.12 703.79" stroke="#132e65" stroke-width="1.5"></path><path d="M246.78 668.47L356.98 521.22" stroke="#132e65" stroke-width="1.5"></path><path d="M246.78 668.47L83.02 555.07" stroke="#132e65" stroke-width="1.5"></path><path d="M342.52 393.89L342.52 393.89" stroke="#132e65" stroke-width="1.5"></path><path d="M342.52 393.89L356.98 521.22" stroke="#132e65" stroke-width="1.5"></path><path d="M342.52 393.89L535.72 363.46" stroke="#132e65" stroke-width="1.5"></path><path d="M356.98 521.22L356.98 521.22" stroke="#132e65" stroke-width="1.5"></path><path d="M411.12 703.79L411.12 703.79" stroke="#132e65" stroke-width="1.5"></path><path d="M411.12 703.79L561 673.55" stroke="#132e65" stroke-width="1.5"></path><path d="M411.12 703.79L356.98 521.22" stroke="#132e65" stroke-width="1.5"></path><path d="M411.12 703.79L557.77 537.09" stroke="#132e65" stroke-width="1.5"></path><path d="M535.72 363.46L535.72 363.46" stroke="#132e65" stroke-width="1.5"></path><path d="M535.72 363.46L638.3 348.22" stroke="#132e65" stroke-width="1.5"></path><path d="M535.72 363.46L557.77 537.09" stroke="#132e65" stroke-width="1.5"></path><path d="M535.72 363.46L684 231.79" stroke="#132e65" stroke-width="1.5"></path><path d="M535.72 363.46L663.02 528.71" stroke="#132e65" stroke-width="1.5"></path><path d="M535.72 363.46L356.98 521.22" stroke="#132e65" stroke-width="1.5"></path><path d="M557.77 537.09L557.77 537.09" stroke="#132e65" stroke-width="1.5"></path><path d="M557.77 537.09L663.02 528.71" stroke="#132e65" stroke-width="1.5"></path><path d="M557.77 537.09L561 673.55" stroke="#132e65" stroke-width="1.5"></path><path d="M557.77 537.09L356.98 521.22" stroke="#132e65" stroke-width="1.5"></path><path d="M557.77 537.09L638.3 348.22" stroke="#132e65" stroke-width="1.5"></path><path d="M557.77 537.09L701.27 695.24" stroke="#132e65" stroke-width="1.5"></path><path d="M561 673.55L561 673.55" stroke="#132e65" stroke-width="1.5"></path><path d="M561 673.55L701.27 695.24" stroke="#132e65" stroke-width="1.5"></path><path d="M561 673.55L663.02 528.71" stroke="#132e65" stroke-width="1.5"></path><path d="M561 673.55L356.98 521.22" stroke="#132e65" stroke-width="1.5"></path><path d="M561 673.55L836.37 646.68" stroke="#132e65" stroke-width="1.5"></path><path d="M684 231.79L684 231.79" stroke="#132e65" stroke-width="1.5"></path><path d="M684 231.79L638.3 348.22" stroke="#132e65" stroke-width="1.5"></path><path d="M684 231.79L824.65 217.27" stroke="#132e65" stroke-width="1.5"></path><path d="M684 231.79L803.64 394.46" stroke="#132e65" stroke-width="1.5"></path><path d="M638.3 348.22L638.3 348.22" stroke="#132e65" stroke-width="1.5"></path><path d="M638.3 348.22L803.64 394.46" stroke="#132e65" stroke-width="1.5"></path><path d="M638.3 348.22L663.02 528.71" stroke="#132e65" stroke-width="1.5"></path><path d="M663.02 528.71L663.02 528.71" stroke="#132e65" stroke-width="1.5"></path><path d="M663.02 528.71L828.51 548.19" stroke="#132e65" stroke-width="1.5"></path><path d="M701.27 695.24L701.27 695.24" stroke="#132e65" stroke-width="1.5"></path><path d="M701.27 695.24L836.37 646.68" stroke="#132e65" stroke-width="1.5"></path><path d="M701.27 695.24L663.02 528.71" stroke="#132e65" stroke-width="1.5"></path><path d="M701.27 695.24L828.51 548.19" stroke="#132e65" stroke-width="1.5"></path><path d="M701.27 695.24L943.92 666.92" stroke="#132e65" stroke-width="1.5"></path><path d="M824.65 217.27L824.65 217.27" stroke="#132e65" stroke-width="1.5"></path><path d="M824.65 217.27L953.4 206.71" stroke="#132e65" stroke-width="1.5"></path><path d="M824.65 217.27L803.64 394.46" stroke="#132e65" stroke-width="1.5"></path><path d="M824.65 217.27L947.37 369.78" stroke="#132e65" stroke-width="1.5"></path><path d="M824.65 217.27L967.81 60.43" stroke="#132e65" stroke-width="1.5"></path><path d="M824.65 217.27L638.3 348.22" stroke="#132e65" stroke-width="1.5"></path><path d="M803.64 394.46L803.64 394.46" stroke="#132e65" stroke-width="1.5"></path><path d="M803.64 394.46L947.37 369.78" stroke="#132e65" stroke-width="1.5"></path><path d="M803.64 394.46L828.51 548.19" stroke="#132e65" stroke-width="1.5"></path><path d="M803.64 394.46L663.02 528.71" stroke="#132e65" stroke-width="1.5"></path><path d="M828.51 548.19L828.51 548.19" stroke="#132e65" stroke-width="1.5"></path><path d="M828.51 548.19L836.37 646.68" stroke="#132e65" stroke-width="1.5"></path><path d="M828.51 548.19L988.65 557.81" stroke="#132e65" stroke-width="1.5"></path><path d="M828.51 548.19L943.92 666.92" stroke="#132e65" stroke-width="1.5"></path><path d="M836.37 646.68L836.37 646.68" stroke="#132e65" stroke-width="1.5"></path><path d="M836.37 646.68L943.92 666.92" stroke="#132e65" stroke-width="1.5"></path><path d="M836.37 646.68L988.65 557.81" stroke="#132e65" stroke-width="1.5"></path><path d="M836.37 646.68L663.02 528.71" stroke="#132e65" stroke-width="1.5"></path><path d="M836.37 646.68L803.64 394.46" stroke="#132e65" stroke-width="1.5"></path><path d="M973.89 -60.65L973.89 -60.65" stroke="#132e65" stroke-width="1.5"></path><path d="M973.89 -60.65L967.81 60.43" stroke="#132e65" stroke-width="1.5"></path><path d="M973.89 -60.65L1138.68 -73.13" stroke="#132e65" stroke-width="1.5"></path><path d="M973.89 -60.65L953.4 206.71" stroke="#132e65" stroke-width="1.5"></path><path d="M967.81 60.43L967.81 60.43" stroke="#132e65" stroke-width="1.5"></path><path d="M967.81 60.43L953.4 206.71" stroke="#132e65" stroke-width="1.5"></path><path d="M953.4 206.71L953.4 206.71" stroke="#132e65" stroke-width="1.5"></path><path d="M953.4 206.71L1089 257.58" stroke="#132e65" stroke-width="1.5"></path><path d="M953.4 206.71L947.37 369.78" stroke="#132e65" stroke-width="1.5"></path><path d="M947.37 369.78L947.37 369.78" stroke="#132e65" stroke-width="1.5"></path><path d="M947.37 369.78L1114.23 361.9" stroke="#132e65" stroke-width="1.5"></path><path d="M947.37 369.78L1089 257.58" stroke="#132e65" stroke-width="1.5"></path><path d="M988.65 557.81L988.65 557.81" stroke="#132e65" stroke-width="1.5"></path><path d="M988.65 557.81L943.92 666.92" stroke="#132e65" stroke-width="1.5"></path><path d="M988.65 557.81L1090.58 676.08" stroke="#132e65" stroke-width="1.5"></path><path d="M988.65 557.81L1142.06 514.14" stroke="#132e65" stroke-width="1.5"></path><path d="M943.92 666.92L943.92 666.92" stroke="#132e65" stroke-width="1.5"></path><path d="M1138.68 -73.13L1138.68 -73.13" stroke="#132e65" stroke-width="1.5"></path><path d="M1138.68 -73.13L1310.53 -45.62" stroke="#132e65" stroke-width="1.5"></path><path d="M1138.68 -73.13L967.81 60.43" stroke="#132e65" stroke-width="1.5"></path><path d="M1138.68 -73.13L1424.83 -103.43" stroke="#132e65" stroke-width="1.5"></path><path d="M1089 257.58L1089 257.58" stroke="#132e65" stroke-width="1.5"></path><path d="M1089 257.58L1114.23 361.9" stroke="#132e65" stroke-width="1.5"></path><path d="M1089 257.58L1309.72 192.89" stroke="#132e65" stroke-width="1.5"></path><path d="M1114.23 361.9L1114.23 361.9" stroke="#132e65" stroke-width="1.5"></path><path d="M1114.23 361.9L1142.06 514.14" stroke="#132e65" stroke-width="1.5"></path><path d="M1114.23 361.9L1272.66 403.91" stroke="#132e65" stroke-width="1.5"></path><path d="M1142.06 514.14L1142.06 514.14" stroke="#132e65" stroke-width="1.5"></path><path d="M1142.06 514.14L1246.94 540.04" stroke="#132e65" stroke-width="1.5"></path><path d="M1090.58 676.08L1090.58 676.08" stroke="#132e65" stroke-width="1.5"></path><path d="M1090.58 676.08L943.92 666.92" stroke="#132e65" stroke-width="1.5"></path><path d="M1310.53 -45.62L1310.53 -45.62" stroke="#132e65" stroke-width="1.5"></path><path d="M1310.53 -45.62L1424.83 -103.43" stroke="#132e65" stroke-width="1.5"></path><path d="M1310.53 -45.62L1433.19 51.08" stroke="#132e65" stroke-width="1.5"></path><path d="M1310.53 -45.62L1545.56 -70.78" stroke="#132e65" stroke-width="1.5"></path><path d="M1310.53 -45.62L1309.72 192.89" stroke="#132e65" stroke-width="1.5"></path><path d="M1309.72 192.89L1309.72 192.89" stroke="#132e65" stroke-width="1.5"></path><path d="M1309.72 192.89L1444.24 198.33" stroke="#132e65" stroke-width="1.5"></path><path d="M1309.72 192.89L1433.19 51.08" stroke="#132e65" stroke-width="1.5"></path><path d="M1309.72 192.89L1272.66 403.91" stroke="#132e65" stroke-width="1.5"></path><path d="M1309.72 192.89L1425.41 374.23" stroke="#132e65" stroke-width="1.5"></path><path d="M1272.66 403.91L1272.66 403.91" stroke="#132e65" stroke-width="1.5"></path><path d="M1272.66 403.91L1246.94 540.04" stroke="#132e65" stroke-width="1.5"></path><path d="M1272.66 403.91L1425.41 374.23" stroke="#132e65" stroke-width="1.5"></path><path d="M1246.94 540.04L1246.94 540.04" stroke="#132e65" stroke-width="1.5"></path><path d="M1246.94 540.04L1288.35 703.64" stroke="#132e65" stroke-width="1.5"></path><path d="M1246.94 540.04L1419.89 499.46" stroke="#132e65" stroke-width="1.5"></path><path d="M1246.94 540.04L1090.58 676.08" stroke="#132e65" stroke-width="1.5"></path><path d="M1246.94 540.04L1395.54 701.07" stroke="#132e65" stroke-width="1.5"></path><path d="M1288.35 703.64L1288.35 703.64" stroke="#132e65" stroke-width="1.5"></path><path d="M1288.35 703.64L1395.54 701.07" stroke="#132e65" stroke-width="1.5"></path><path d="M1288.35 703.64L1090.58 676.08" stroke="#132e65" stroke-width="1.5"></path><path d="M1288.35 703.64L1142.06 514.14" stroke="#132e65" stroke-width="1.5"></path><path d="M1288.35 703.64L1419.89 499.46" stroke="#132e65" stroke-width="1.5"></path><path d="M1288.35 703.64L1548.58 681.04" stroke="#132e65" stroke-width="1.5"></path><path d="M1424.83 -103.43L1424.83 -103.43" stroke="#132e65" stroke-width="1.5"></path><path d="M1424.83 -103.43L1545.56 -70.78" stroke="#132e65" stroke-width="1.5"></path><path d="M1424.83 -103.43L1433.19 51.08" stroke="#132e65" stroke-width="1.5"></path><path d="M1424.83 -103.43L1543.72 62.74" stroke="#132e65" stroke-width="1.5"></path><path d="M1433.19 51.08L1433.19 51.08" stroke="#132e65" stroke-width="1.5"></path><path d="M1433.19 51.08L1543.72 62.74" stroke="#132e65" stroke-width="1.5"></path><path d="M1433.19 51.08L1444.24 198.33" stroke="#132e65" stroke-width="1.5"></path><path d="M1433.19 51.08L1545.56 -70.78" stroke="#132e65" stroke-width="1.5"></path><path d="M1444.24 198.33L1444.24 198.33" stroke="#132e65" stroke-width="1.5"></path><path d="M1444.24 198.33L1555.7 210.95" stroke="#132e65" stroke-width="1.5"></path><path d="M1425.41 374.23L1425.41 374.23" stroke="#132e65" stroke-width="1.5"></path><path d="M1425.41 374.23L1419.89 499.46" stroke="#132e65" stroke-width="1.5"></path><path d="M1425.41 374.23L1597.77 347.51" stroke="#132e65" stroke-width="1.5"></path><path d="M1425.41 374.23L1444.24 198.33" stroke="#132e65" stroke-width="1.5"></path><path d="M1425.41 374.23L1578.25 509.19" stroke="#132e65" stroke-width="1.5"></path><path d="M1419.89 499.46L1419.89 499.46" stroke="#132e65" stroke-width="1.5"></path><path d="M1419.89 499.46L1578.25 509.19" stroke="#132e65" stroke-width="1.5"></path><path d="M1419.89 499.46L1272.66 403.91" stroke="#132e65" stroke-width="1.5"></path><path d="M1419.89 499.46L1395.54 701.07" stroke="#132e65" stroke-width="1.5"></path><path d="M1419.89 499.46L1548.58 681.04" stroke="#132e65" stroke-width="1.5"></path><path d="M1395.54 701.07L1395.54 701.07" stroke="#132e65" stroke-width="1.5"></path><path d="M1395.54 701.07L1548.58 681.04" stroke="#132e65" stroke-width="1.5"></path><path d="M1545.56 -70.78L1545.56 -70.78" stroke="#132e65" stroke-width="1.5"></path><path d="M1545.56 -70.78L1543.72 62.74" stroke="#132e65" stroke-width="1.5"></path><path d="M1543.72 62.74L1543.72 62.74" stroke="#132e65" stroke-width="1.5"></path><path d="M1543.72 62.74L1555.7 210.95" stroke="#132e65" stroke-width="1.5"></path><path d="M1543.72 62.74L1444.24 198.33" stroke="#132e65" stroke-width="1.5"></path><path d="M1555.7 210.95L1555.7 210.95" stroke="#132e65" stroke-width="1.5"></path><path d="M1555.7 210.95L1597.77 347.51" stroke="#132e65" stroke-width="1.5"></path><path d="M1555.7 210.95L1433.19 51.08" stroke="#132e65" stroke-width="1.5"></path><path d="M1597.77 347.51L1597.77 347.51" stroke="#132e65" stroke-width="1.5"></path><path d="M1597.77 347.51L1578.25 509.19" stroke="#132e65" stroke-width="1.5"></path><path d="M1597.77 347.51L1444.24 198.33" stroke="#132e65" stroke-width="1.5"></path><path d="M1578.25 509.19L1578.25 509.19" stroke="#132e65" stroke-width="1.5"></path><path d="M1578.25 509.19L1548.58 681.04" stroke="#132e65" stroke-width="1.5"></path><path d="M1578.25 509.19L1395.54 701.07" stroke="#132e65" stroke-width="1.5"></path><path d="M1548.58 681.04L1548.58 681.04" stroke="#132e65" stroke-width="1.5"></path><circle r="5" cx="-93.84" cy="367.66" fill="#132e65"></circle><circle r="5" cx="-62.68" cy="492.82" fill="#132e65"></circle><circle r="5" cx="-76.48" cy="638.9" fill="#132e65"></circle><circle r="5" cx="58.8" cy="403.57" fill="#132e65"></circle><circle r="5" cx="83.02" cy="555.07" fill="#132e65"></circle><circle r="5" cx="97.89" cy="674.03" fill="#132e65"></circle><circle r="5" cx="247.01" cy="387.41" fill="#132e65"></circle><circle r="5" cx="234.84" cy="534.04" fill="#132e65"></circle><circle r="5" cx="246.78" cy="668.47" fill="#132e65"></circle><circle r="5" cx="342.52" cy="393.89" fill="#132e65"></circle><circle r="5" cx="356.98" cy="521.22" fill="#132e65"></circle><circle r="5" cx="411.12" cy="703.79" fill="#132e65"></circle><circle r="5" cx="535.72" cy="363.46" fill="#132e65"></circle><circle r="5" cx="557.77" cy="537.09" fill="#132e65"></circle><circle r="5" cx="561" cy="673.55" fill="#132e65"></circle><circle r="5" cx="684" cy="231.79" fill="#132e65"></circle><circle r="5" cx="638.3" cy="348.22" fill="#132e65"></circle><circle r="5" cx="663.02" cy="528.71" fill="#132e65"></circle><circle r="5" cx="701.27" cy="695.24" fill="#132e65"></circle><circle r="5" cx="824.65" cy="217.27" fill="#132e65"></circle><circle r="5" cx="803.64" cy="394.46" fill="#132e65"></circle><circle r="5" cx="828.51" cy="548.19" fill="#132e65"></circle><circle r="5" cx="836.37" cy="646.68" fill="#132e65"></circle><circle r="5" cx="973.89" cy="-60.65" fill="#132e65"></circle><circle r="5" cx="967.81" cy="60.43" fill="#132e65"></circle><circle r="5" cx="953.4" cy="206.71" fill="#132e65"></circle><circle r="5" cx="947.37" cy="369.78" fill="#132e65"></circle><circle r="5" cx="988.65" cy="557.81" fill="#132e65"></circle><circle r="5" cx="943.92" cy="666.92" fill="#132e65"></circle><circle r="5" cx="1138.68" cy="-73.13" fill="#132e65"></circle><circle r="5" cx="1089" cy="257.58" fill="#132e65"></circle><circle r="5" cx="1114.23" cy="361.9" fill="#132e65"></circle><circle r="5" cx="1142.06" cy="514.14" fill="#132e65"></circle><circle r="5" cx="1090.58" cy="676.08" fill="#132e65"></circle><circle r="5" cx="1310.53" cy="-45.62" fill="#132e65"></circle><circle r="5" cx="1309.72" cy="192.89" fill="#132e65"></circle><circle r="5" cx="1272.66" cy="403.91" fill="#132e65"></circle><circle r="5" cx="1246.94" cy="540.04" fill="#132e65"></circle><circle r="5" cx="1288.35" cy="703.64" fill="#132e65"></circle><circle r="5" cx="1424.83" cy="-103.43" fill="#132e65"></circle><circle r="5" cx="1433.19" cy="51.08" fill="#132e65"></circle><circle r="5" cx="1444.24" cy="198.33" fill="#132e65"></circle><circle r="5" cx="1425.41" cy="374.23" fill="#132e65"></circle><circle r="5" cx="1419.89" cy="499.46" fill="#132e65"></circle><circle r="5" cx="1395.54" cy="701.07" fill="#132e65"></circle><circle r="5" cx="1545.56" cy="-70.78" fill="#132e65"></circle><circle r="5" cx="1543.72" cy="62.74" fill="#132e65"></circle><circle r="5" cx="1555.7" cy="210.95" fill="#132e65"></circle><circle r="5" cx="1597.77" cy="347.51" fill="#132e65"></circle><circle r="5" cx="1578.25" cy="509.19" fill="#132e65"></circle><circle r="5" cx="1548.58" cy="681.04" fill="#132e65"></circle><path d="M206.68 677.54L206.68 677.54" stroke="hsl(228.5, 77.2%, 51.5%)" stroke-width="1.5"></path><path d="M206.68 677.54L239.38 545.33" stroke="hsl(228.5, 77.2%, 51.5%)" stroke-width="1.5"></path><path d="M206.68 677.54L58.84 696.91" stroke="hsl(228.5, 77.2%, 51.5%)" stroke-width="1.5"></path><path d="M206.68 677.54L75.31 550.35" stroke="hsl(228.5, 77.2%, 51.5%)" stroke-width="1.5"></path><path d="M206.68 677.54L387.4 710.28" stroke="hsl(228.5, 77.2%, 51.5%)" stroke-width="1.5"></path><path d="M206.68 677.54L499.96 640.91" stroke="hsl(228.5, 77.2%, 51.5%)" stroke-width="1.5"></path><path d="M206.68 677.54L502.74 551.92" stroke="hsl(228.5, 77.2%, 51.5%)" stroke-width="1.5"></path><path d="M704.54 560.78L704.54 560.78" stroke="hsl(228.5, 77.2%, 51.5%)" stroke-width="1.5"></path><path d="M704.54 560.78L799.12 520.72" stroke="hsl(228.5, 77.2%, 51.5%)" stroke-width="1.5"></path><path d="M704.54 560.78L677.84 681.58" stroke="hsl(228.5, 77.2%, 51.5%)" stroke-width="1.5"></path><path d="M999.52 552.55L999.52 552.55" stroke="hsl(228.5, 77.2%, 51.5%)" stroke-width="1.5"></path><path d="M999.52 552.55L1116.36 522.77" stroke="hsl(228.5, 77.2%, 51.5%)" stroke-width="1.5"></path><path d="M999.52 552.55L999.85 688.08" stroke="hsl(228.5, 77.2%, 51.5%)" stroke-width="1.5"></path><path d="M999.52 552.55L992.47 373.8" stroke="hsl(228.5, 77.2%, 51.5%)" stroke-width="1.5"></path><path d="M1103.61 252.63L1103.61 252.63" stroke="hsl(228.5, 77.2%, 51.5%)" stroke-width="1.5"></path><path d="M1103.61 252.63L996.85 256.66" stroke="hsl(228.5, 77.2%, 51.5%)" stroke-width="1.5"></path><path d="M1103.61 252.63L1121.16 358.44" stroke="hsl(228.5, 77.2%, 51.5%)" stroke-width="1.5"></path><path d="M1103.61 252.63L1238.19 228.83" stroke="hsl(228.5, 77.2%, 51.5%)" stroke-width="1.5"></path><path d="M1160.28 712.01L1160.28 712.01" stroke="hsl(228.5, 77.2%, 51.5%)" stroke-width="1.5"></path><path d="M1160.28 712.01L1293.91 676.84" stroke="hsl(228.5, 77.2%, 51.5%)" stroke-width="1.5"></path><path d="M1160.28 712.01L999.85 688.08" stroke="hsl(228.5, 77.2%, 51.5%)" stroke-width="1.5"></path><path d="M1252.09 -75.91L1252.09 -75.91" stroke="hsl(228.5, 77.2%, 51.5%)" stroke-width="1.5"></path><path d="M1252.09 -75.91L1290.6 40.84" stroke="hsl(228.5, 77.2%, 51.5%)" stroke-width="1.5"></path><path d="M1252.09 -75.91L1462.26 -41.97" stroke="hsl(228.5, 77.2%, 51.5%)" stroke-width="1.5"></path><path d="M1252.09 -75.91L1439.71 49.7" stroke="hsl(228.5, 77.2%, 51.5%)" stroke-width="1.5"></path><path d="M1252.09 -75.91L1238.19 228.83" stroke="hsl(228.5, 77.2%, 51.5%)" stroke-width="1.5"></path><path d="M1252.09 -75.91L1581.66 -64.49" stroke="hsl(228.5, 77.2%, 51.5%)" stroke-width="1.5"></path><path d="M1290.6 40.84L1290.6 40.84" stroke="hsl(228.5, 77.2%, 51.5%)" stroke-width="1.5"></path><path d="M1290.6 40.84L1439.71 49.7" stroke="hsl(228.5, 77.2%, 51.5%)" stroke-width="1.5"></path><path d="M1290.6 40.84L1462.26 -41.97" stroke="hsl(228.5, 77.2%, 51.5%)" stroke-width="1.5"></path><path d="M1290.6 40.84L1238.19 228.83" stroke="hsl(228.5, 77.2%, 51.5%)" stroke-width="1.5"></path><path d="M1290.6 40.84L1400.65 262.21" stroke="hsl(228.5, 77.2%, 51.5%)" stroke-width="1.5"></path><path d="M1439.71 49.7L1439.71 49.7" stroke="hsl(228.5, 77.2%, 51.5%)" stroke-width="1.5"></path><path d="M1439.71 49.7L1462.26 -41.97" stroke="hsl(228.5, 77.2%, 51.5%)" stroke-width="1.5"></path><path d="M1439.71 49.7L1592.04 71.7" stroke="hsl(228.5, 77.2%, 51.5%)" stroke-width="1.5"></path><path d="M1395.1 389.44L1395.1 389.44" stroke="hsl(228.5, 77.2%, 51.5%)" stroke-width="1.5"></path><path d="M1395.1 389.44L1400.65 262.21" stroke="hsl(228.5, 77.2%, 51.5%)" stroke-width="1.5"></path><path d="M1395.1 389.44L1241.16 362.04" stroke="hsl(228.5, 77.2%, 51.5%)" stroke-width="1.5"></path><path d="M1395.1 389.44L1436.82 540.87" stroke="hsl(228.5, 77.2%, 51.5%)" stroke-width="1.5"></path><path d="M1395.1 389.44L1552.01 372.72" stroke="hsl(228.5, 77.2%, 51.5%)" stroke-width="1.5"></path><path d="M1395.1 389.44L1269.73 552.73" stroke="hsl(228.5, 77.2%, 51.5%)" stroke-width="1.5"></path><path d="M1581.66 -64.49L1581.66 -64.49" stroke="hsl(228.5, 77.2%, 51.5%)" stroke-width="1.5"></path><path d="M1581.66 -64.49L1462.26 -41.97" stroke="hsl(228.5, 77.2%, 51.5%)" stroke-width="1.5"></path><path d="M1581.66 -64.49L1592.04 71.7" stroke="hsl(228.5, 77.2%, 51.5%)" stroke-width="1.5"></path><path d="M1581.66 -64.49L1439.71 49.7" stroke="hsl(228.5, 77.2%, 51.5%)" stroke-width="1.5"></path><path d="M1581.66 -64.49L1600.51 208.88" stroke="hsl(228.5, 77.2%, 51.5%)" stroke-width="1.5"></path><path d="M1581.66 -64.49L1290.6 40.84" stroke="hsl(228.5, 77.2%, 51.5%)" stroke-width="1.5"></path><path d="M1552.01 372.72L1552.01 372.72" stroke="hsl(228.5, 77.2%, 51.5%)" stroke-width="1.5"></path><path d="M1552.01 372.72L1586.27 508.29" stroke="hsl(228.5, 77.2%, 51.5%)" stroke-width="1.5"></path><path d="M1552.01 372.72L1600.51 208.88" stroke="hsl(228.5, 77.2%, 51.5%)" stroke-width="1.5"></path><path d="M1552.01 372.72L1400.65 262.21" stroke="hsl(228.5, 77.2%, 51.5%)" stroke-width="1.5"></path><path d="M-67.78 500.09L-67.78 500.09" stroke="hsl(228.5, 77.2%, 51.5%)" stroke-width="1.5"></path><path d="M-67.78 500.09L75.31 550.35" stroke="hsl(228.5, 77.2%, 51.5%)" stroke-width="1.5"></path><path d="M-67.78 500.09L58.84 696.91" stroke="hsl(228.5, 77.2%, 51.5%)" stroke-width="1.5"></path><path d="M-67.78 500.09L239.38 545.33" stroke="hsl(228.5, 77.2%, 51.5%)" stroke-width="1.5"></path><path d="M-67.78 500.09L206.68 677.54" stroke="hsl(228.5, 77.2%, 51.5%)" stroke-width="1.5"></path><path d="M-67.78 500.09L387.4 710.28" stroke="hsl(228.5, 77.2%, 51.5%)" stroke-width="1.5"></path><path d="M75.31 550.35L75.31 550.35" stroke="hsl(228.5, 77.2%, 51.5%)" stroke-width="1.5"></path><path d="M75.31 550.35L58.84 696.91" stroke="hsl(228.5, 77.2%, 51.5%)" stroke-width="1.5"></path><path d="M75.31 550.35L239.38 545.33" stroke="hsl(228.5, 77.2%, 51.5%)" stroke-width="1.5"></path><path d="M75.31 550.35L387.4 710.28" stroke="hsl(228.5, 77.2%, 51.5%)" stroke-width="1.5"></path><path d="M75.31 550.35L502.74 551.92" stroke="hsl(228.5, 77.2%, 51.5%)" stroke-width="1.5"></path><path d="M58.84 696.91L58.84 696.91" stroke="hsl(228.5, 77.2%, 51.5%)" stroke-width="1.5"></path><path d="M239.38 545.33L239.38 545.33" stroke="hsl(228.5, 77.2%, 51.5%)" stroke-width="1.5"></path><path d="M239.38 545.33L387.4 710.28" stroke="hsl(228.5, 77.2%, 51.5%)" stroke-width="1.5"></path><path d="M239.38 545.33L58.84 696.91" stroke="hsl(228.5, 77.2%, 51.5%)" stroke-width="1.5"></path><path d="M239.38 545.33L502.74 551.92" stroke="hsl(228.5, 77.2%, 51.5%)" stroke-width="1.5"></path><path d="M387.4 710.28L387.4 710.28" stroke="hsl(228.5, 77.2%, 51.5%)" stroke-width="1.5"></path><path d="M387.4 710.28L499.96 640.91" stroke="hsl(228.5, 77.2%, 51.5%)" stroke-width="1.5"></path><path d="M387.4 710.28L502.74 551.92" stroke="hsl(228.5, 77.2%, 51.5%)" stroke-width="1.5"></path><path d="M502.74 551.92L502.74 551.92" stroke="hsl(228.5, 77.2%, 51.5%)" stroke-width="1.5"></path><path d="M502.74 551.92L499.96 640.91" stroke="hsl(228.5, 77.2%, 51.5%)" stroke-width="1.5"></path><path d="M499.96 640.91L499.96 640.91" stroke="hsl(228.5, 77.2%, 51.5%)" stroke-width="1.5"></path><path d="M677.84 681.58L677.84 681.58" stroke="hsl(228.5, 77.2%, 51.5%)" stroke-width="1.5"></path><path d="M677.84 681.58L808.55 643.3" stroke="hsl(228.5, 77.2%, 51.5%)" stroke-width="1.5"></path><path d="M677.84 681.58L499.96 640.91" stroke="hsl(228.5, 77.2%, 51.5%)" stroke-width="1.5"></path><path d="M851.64 391.84L851.64 391.84" stroke="hsl(228.5, 77.2%, 51.5%)" stroke-width="1.5"></path><path d="M851.64 391.84L799.12 520.72" stroke="hsl(228.5, 77.2%, 51.5%)" stroke-width="1.5"></path><path d="M851.64 391.84L992.47 373.8" stroke="hsl(228.5, 77.2%, 51.5%)" stroke-width="1.5"></path><path d="M851.64 391.84L996.85 256.66" stroke="hsl(228.5, 77.2%, 51.5%)" stroke-width="1.5"></path><path d="M851.64 391.84L999.52 552.55" stroke="hsl(228.5, 77.2%, 51.5%)" stroke-width="1.5"></path><path d="M851.64 391.84L704.54 560.78" stroke="hsl(228.5, 77.2%, 51.5%)" stroke-width="1.5"></path><path d="M851.64 391.84L808.55 643.3" stroke="hsl(228.5, 77.2%, 51.5%)" stroke-width="1.5"></path><path d="M799.12 520.72L799.12 520.72" stroke="hsl(228.5, 77.2%, 51.5%)" stroke-width="1.5"></path><path d="M799.12 520.72L808.55 643.3" stroke="hsl(228.5, 77.2%, 51.5%)" stroke-width="1.5"></path><path d="M799.12 520.72L677.84 681.58" stroke="hsl(228.5, 77.2%, 51.5%)" stroke-width="1.5"></path><path d="M799.12 520.72L999.52 552.55" stroke="hsl(228.5, 77.2%, 51.5%)" stroke-width="1.5"></path><path d="M799.12 520.72L992.47 373.8" stroke="hsl(228.5, 77.2%, 51.5%)" stroke-width="1.5"></path><path d="M808.55 643.3L808.55 643.3" stroke="hsl(228.5, 77.2%, 51.5%)" stroke-width="1.5"></path><path d="M996.85 256.66L996.85 256.66" stroke="hsl(228.5, 77.2%, 51.5%)" stroke-width="1.5"></path><path d="M996.85 256.66L992.47 373.8" stroke="hsl(228.5, 77.2%, 51.5%)" stroke-width="1.5"></path><path d="M996.85 256.66L1121.16 358.44" stroke="hsl(228.5, 77.2%, 51.5%)" stroke-width="1.5"></path><path d="M996.85 256.66L1238.19 228.83" stroke="hsl(228.5, 77.2%, 51.5%)" stroke-width="1.5"></path><path d="M996.85 256.66L1241.16 362.04" stroke="hsl(228.5, 77.2%, 51.5%)" stroke-width="1.5"></path><path d="M992.47 373.8L992.47 373.8" stroke="hsl(228.5, 77.2%, 51.5%)" stroke-width="1.5"></path><path d="M992.47 373.8L1121.16 358.44" stroke="hsl(228.5, 77.2%, 51.5%)" stroke-width="1.5"></path><path d="M992.47 373.8L1103.61 252.63" stroke="hsl(228.5, 77.2%, 51.5%)" stroke-width="1.5"></path><path d="M992.47 373.8L1116.36 522.77" stroke="hsl(228.5, 77.2%, 51.5%)" stroke-width="1.5"></path><path d="M999.85 688.08L999.85 688.08" stroke="hsl(228.5, 77.2%, 51.5%)" stroke-width="1.5"></path><path d="M1121.16 358.44L1121.16 358.44" stroke="hsl(228.5, 77.2%, 51.5%)" stroke-width="1.5"></path><path d="M1121.16 358.44L1241.16 362.04" stroke="hsl(228.5, 77.2%, 51.5%)" stroke-width="1.5"></path><path d="M1116.36 522.77L1116.36 522.77" stroke="hsl(228.5, 77.2%, 51.5%)" stroke-width="1.5"></path><path d="M1116.36 522.77L1269.73 552.73" stroke="hsl(228.5, 77.2%, 51.5%)" stroke-width="1.5"></path><path d="M1116.36 522.77L1121.16 358.44" stroke="hsl(228.5, 77.2%, 51.5%)" stroke-width="1.5"></path><path d="M1238.19 228.83L1238.19 228.83" stroke="hsl(228.5, 77.2%, 51.5%)" stroke-width="1.5"></path><path d="M1238.19 228.83L1241.16 362.04" stroke="hsl(228.5, 77.2%, 51.5%)" stroke-width="1.5"></path><path d="M1238.19 228.83L1400.65 262.21" stroke="hsl(228.5, 77.2%, 51.5%)" stroke-width="1.5"></path><path d="M1238.19 228.83L1121.16 358.44" stroke="hsl(228.5, 77.2%, 51.5%)" stroke-width="1.5"></path><path d="M1241.16 362.04L1241.16 362.04" stroke="hsl(228.5, 77.2%, 51.5%)" stroke-width="1.5"></path><path d="M1241.16 362.04L1103.61 252.63" stroke="hsl(228.5, 77.2%, 51.5%)" stroke-width="1.5"></path><path d="M1241.16 362.04L1400.65 262.21" stroke="hsl(228.5, 77.2%, 51.5%)" stroke-width="1.5"></path><path d="M1269.73 552.73L1269.73 552.73" stroke="hsl(228.5, 77.2%, 51.5%)" stroke-width="1.5"></path><path d="M1269.73 552.73L1293.91 676.84" stroke="hsl(228.5, 77.2%, 51.5%)" stroke-width="1.5"></path><path d="M1269.73 552.73L1436.82 540.87" stroke="hsl(228.5, 77.2%, 51.5%)" stroke-width="1.5"></path><path d="M1269.73 552.73L1403.58 657.15" stroke="hsl(228.5, 77.2%, 51.5%)" stroke-width="1.5"></path><path d="M1269.73 552.73L1241.16 362.04" stroke="hsl(228.5, 77.2%, 51.5%)" stroke-width="1.5"></path><path d="M1269.73 552.73L1160.28 712.01" stroke="hsl(228.5, 77.2%, 51.5%)" stroke-width="1.5"></path><path d="M1293.91 676.84L1293.91 676.84" stroke="hsl(228.5, 77.2%, 51.5%)" stroke-width="1.5"></path><path d="M1293.91 676.84L1403.58 657.15" stroke="hsl(228.5, 77.2%, 51.5%)" stroke-width="1.5"></path><path d="M1293.91 676.84L1436.82 540.87" stroke="hsl(228.5, 77.2%, 51.5%)" stroke-width="1.5"></path><path d="M1462.26 -41.97L1462.26 -41.97" stroke="hsl(228.5, 77.2%, 51.5%)" stroke-width="1.5"></path><path d="M1462.26 -41.97L1592.04 71.7" stroke="hsl(228.5, 77.2%, 51.5%)" stroke-width="1.5"></path><path d="M1462.26 -41.97L1600.51 208.88" stroke="hsl(228.5, 77.2%, 51.5%)" stroke-width="1.5"></path><path d="M1400.65 262.21L1400.65 262.21" stroke="hsl(228.5, 77.2%, 51.5%)" stroke-width="1.5"></path><path d="M1436.82 540.87L1436.82 540.87" stroke="hsl(228.5, 77.2%, 51.5%)" stroke-width="1.5"></path><path d="M1436.82 540.87L1403.58 657.15" stroke="hsl(228.5, 77.2%, 51.5%)" stroke-width="1.5"></path><path d="M1436.82 540.87L1586.27 508.29" stroke="hsl(228.5, 77.2%, 51.5%)" stroke-width="1.5"></path><path d="M1403.58 657.15L1403.58 657.15" stroke="hsl(228.5, 77.2%, 51.5%)" stroke-width="1.5"></path><path d="M1403.58 657.15L1559.96 656.07" stroke="hsl(228.5, 77.2%, 51.5%)" stroke-width="1.5"></path><path d="M1592.04 71.7L1592.04 71.7" stroke="hsl(228.5, 77.2%, 51.5%)" stroke-width="1.5"></path><path d="M1592.04 71.7L1600.51 208.88" stroke="hsl(228.5, 77.2%, 51.5%)" stroke-width="1.5"></path><path d="M1600.51 208.88L1600.51 208.88" stroke="hsl(228.5, 77.2%, 51.5%)" stroke-width="1.5"></path><path d="M1600.51 208.88L1400.65 262.21" stroke="hsl(228.5, 77.2%, 51.5%)" stroke-width="1.5"></path><path d="M1600.51 208.88L1439.71 49.7" stroke="hsl(228.5, 77.2%, 51.5%)" stroke-width="1.5"></path><path d="M1600.51 208.88L1395.1 389.44" stroke="hsl(228.5, 77.2%, 51.5%)" stroke-width="1.5"></path><path d="M1586.27 508.29L1586.27 508.29" stroke="hsl(228.5, 77.2%, 51.5%)" stroke-width="1.5"></path><path d="M1586.27 508.29L1559.96 656.07" stroke="hsl(228.5, 77.2%, 51.5%)" stroke-width="1.5"></path><path d="M1586.27 508.29L1395.1 389.44" stroke="hsl(228.5, 77.2%, 51.5%)" stroke-width="1.5"></path><path d="M1586.27 508.29L1403.58 657.15" stroke="hsl(228.5, 77.2%, 51.5%)" stroke-width="1.5"></path><path d="M1586.27 508.29L1600.51 208.88" stroke="hsl(228.5, 77.2%, 51.5%)" stroke-width="1.5"></path><path d="M1559.96 656.07L1559.96 656.07" stroke="hsl(228.5, 77.2%, 51.5%)" stroke-width="1.5"></path><circle r="25" cx="206.68" cy="677.54" fill="url(#SvgjsRadialGradient1003)"></circle><circle r="25" cx="704.54" cy="560.78" fill="url(#SvgjsRadialGradient1003)"></circle><circle r="25" cx="999.52" cy="552.55" fill="url(#SvgjsRadialGradient1003)"></circle><circle r="25" cx="1103.61" cy="252.63" fill="url(#SvgjsRadialGradient1003)"></circle><circle r="25" cx="1160.28" cy="712.01" fill="url(#SvgjsRadialGradient1003)"></circle><circle r="25" cx="1252.09" cy="-75.91" fill="url(#SvgjsRadialGradient1003)"></circle><circle r="25" cx="1290.6" cy="40.84" fill="url(#SvgjsRadialGradient1003)"></circle><circle r="25" cx="1439.71" cy="49.7" fill="url(#SvgjsRadialGradient1003)"></circle><circle r="25" cx="1395.1" cy="389.44" fill="url(#SvgjsRadialGradient1003)"></circle><circle r="25" cx="1581.66" cy="-64.49" fill="url(#SvgjsRadialGradient1003)"></circle><circle r="25" cx="1552.01" cy="372.72" fill="url(#SvgjsRadialGradient1003)"></circle><circle r="5" cx="-67.78" cy="500.09" fill="#8b9ad9"></circle><circle r="5" cx="75.31" cy="550.35" fill="#8b9ad9"></circle><circle r="5" cx="58.84" cy="696.91" fill="#8b9ad9"></circle><circle r="5" cx="239.38" cy="545.33" fill="#8b9ad9"></circle><circle r="5" cx="387.4" cy="710.28" fill="#8b9ad9"></circle><circle r="5" cx="502.74" cy="551.92" fill="#8b9ad9"></circle><circle r="5" cx="499.96" cy="640.91" fill="#8b9ad9"></circle><circle r="5" cx="677.84" cy="681.58" fill="#8b9ad9"></circle><circle r="5" cx="851.64" cy="391.84" fill="#8b9ad9"></circle><circle r="5" cx="799.12" cy="520.72" fill="#8b9ad9"></circle><circle r="5" cx="808.55" cy="643.3" fill="#8b9ad9"></circle><circle r="5" cx="996.85" cy="256.66" fill="#8b9ad9"></circle><circle r="5" cx="992.47" cy="373.8" fill="#8b9ad9"></circle><circle r="5" cx="999.85" cy="688.08" fill="#8b9ad9"></circle><circle r="5" cx="1121.16" cy="358.44" fill="#8b9ad9"></circle><circle r="5" cx="1116.36" cy="522.77" fill="#8b9ad9"></circle><circle r="5" cx="1238.19" cy="228.83" fill="#8b9ad9"></circle><circle r="5" cx="1241.16" cy="362.04" fill="#8b9ad9"></circle><circle r="5" cx="1269.73" cy="552.73" fill="#8b9ad9"></circle><circle r="5" cx="1293.91" cy="676.84" fill="#8b9ad9"></circle><circle r="5" cx="1462.26" cy="-41.97" fill="#8b9ad9"></circle><circle r="5" cx="1400.65" cy="262.21" fill="#8b9ad9"></circle><circle r="5" cx="1436.82" cy="540.87" fill="#8b9ad9"></circle><circle r="5" cx="1403.58" cy="657.15" fill="#8b9ad9"></circle><circle r="5" cx="1592.04" cy="71.7" fill="#8b9ad9"></circle><circle r="5" cx="1600.51" cy="208.88" fill="#8b9ad9"></circle><circle r="5" cx="1586.27" cy="508.29" fill="#8b9ad9"></circle><circle r="5" cx="1559.96" cy="656.07" fill="#8b9ad9"></circle></g><defs><mask id="SvgjsMask1002"><rect width="1440" height="560" fill="#ffffff"></rect></mask><radialGradient id="SvgjsRadialGradient1003"><stop stop-color="#ffffff" offset="0.1"></stop><stop stop-color="#1735b3" offset="0.2"></stop><stop stop-color="rgba(23, 53, 179, 0)" offset="1"></stop></radialGradient></defs></svg>