<svg xmlns="http://www.w3.org/2000/svg" version="1.1" xmlns:xlink="http://www.w3.org/1999/xlink" xmlns:svgjs="http://svgjs.com/svgjs" width="1440" height="560" preserveAspectRatio="none" viewBox="0 0 1440 560"><g mask="url(&quot;#SvgjsMask1001&quot;)" fill="none"><path d="M670.74 78.68 a55.84 55.84 0 1 0 111.68 0 a55.84 55.84 0 1 0 -111.68 0z" fill="#e73635"></path><path d="M1025.95 11.16L1033.88 11.16L1033.88 22.69L1025.95 22.69z" fill="#037b0b"></path><path d="M1318.07 179.24a41.15 41.15 0 1 0-72.23-39.45z" fill="#037b0b"></path><path d="M293.15 397.26L341.07 397.26L341.07 445.18L293.15 445.18z" fill="#e73635"></path><path d="M810.66 559.15L849.09 559.15L849.09 608.81L810.66 608.81z" stroke="#037b0b"></path><path d="M203.8 401.4L251.34 401.4L251.34 448.94L203.8 448.94z" stroke="#d3b714"></path><path d="M935.44 483.79L965.77 483.79L965.77 538.19L935.44 538.19z" fill="#d3b714"></path><path d="M769.4 403.12 a47.19 47.19 0 1 0 94.38 0 a47.19 47.19 0 1 0 -94.38 0z" stroke="#d3b714"></path><path d="M1114.67 403.74a7.61 7.61 0 1 0 2.33-15.04z" fill="#d3b714"></path><path d="M407.16 16.1a53.84 53.84 0 1 0-64.66 86.1z" fill="#e73635"></path><path d="M1074.69 140.38L1113.39 140.38L1113.39 170.56L1074.69 170.56z" stroke="#037b0b"></path><path d="M1196.55 185.6L1231.01 185.6L1231.01 220.06L1196.55 220.06z" fill="#e73635"></path><path d="M1251.99 474.73a55.19 55.19 0 1 0-110.25-5.31z" stroke="#e73635"></path><path d="M974.53 207.15L983.63 207.15L983.63 226.85L974.53 226.85z" fill="#d3b714"></path><path d="M1368.88 438.21L1383.35 438.21L1383.35 452.68L1368.88 452.68z" fill="#d3b714"></path><path d="M1095.53 91.04 a1.3 1.3 0 1 0 2.6 0 a1.3 1.3 0 1 0 -2.6 0z" fill="#037b0b"></path><path d="M248.46 211.07 a52.2 52.2 0 1 0 104.4 0 a52.2 52.2 0 1 0 -104.4 0z" fill="#d3b714"></path><path d="M325.1 496.35L371.52 496.35L371.52 534.76L325.1 534.76z" fill="#e73635"></path><path d="M1197.54 46.02L1228.16 46.02L1228.16 80.78L1197.54 80.78z" fill="#037b0b"></path><path d="M1122.55 312.34a10.29 10.29 0 1 0 19.28 7.22z" fill="#d3b714"></path><path d="M696.33 400.04L723.18 400.04L723.18 430.99L696.33 430.99z" fill="#e73635"></path><path d="M1165.65 181.93L1168.61 181.93L1168.61 184.89L1165.65 184.89z" stroke="#e73635"></path><path d="M236.86 232.21L255.34 232.21L255.34 236.05L236.86 236.05z" stroke="#e73635"></path><path d="M698.47 58.95L742.35 58.95L742.35 78.44L698.47 78.44z" fill="#037b0b"></path><path d="M604.03 182.24L624.59 182.24L624.59 202.8L604.03 202.8z" fill="#e73635"></path><path d="M587.45 101.19a47.76 47.76 0 1 0 47.84-82.68z" stroke="#e73635"></path><path d="M824.1 434.36 a40.55 40.55 0 1 0 81.1 0 a40.55 40.55 0 1 0 -81.1 0z" fill="#037b0b"></path><path d="M95.07 259.85a22.72 22.72 0 1 0-5.62 45.09z" fill="#037b0b"></path><path d="M179.69 402.44a33.09 33.09 0 1 0 64.34-15.52z" fill="#d3b714"></path><path d="M506.39 230.43L557.56 230.43L557.56 281.6L506.39 281.6z" stroke="#d3b714"></path><path d="M1323.7 470.02a31.64 31.64 0 1 0-24.95-58.15z" stroke="#d3b714"></path><path d="M19.39 477.03L39.39 477.03L39.39 497.03L19.39 497.03z" stroke="#d3b714"></path><path d="M925.75 95.76L971.86 95.76L971.86 111.38L925.75 111.38z" fill="#d3b714"></path></g><defs><mask id="SvgjsMask1001"><rect width="1440" height="560" fill="#ffffff"></rect></mask></defs></svg>