<?xml version="1.0" standalone="no"?><svg xmlns="http://www.w3.org/2000/svg" viewBox="0 0 1440 320"><path fill="#0099ff" fill-opacity="1" d="M0,288L34.3,288C68.6,288,137,288,206,245.3C274.3,203,343,117,411,106.7C480,96,549,160,617,176C685.7,192,754,160,823,160C891.4,160,960,192,1029,218.7C1097.1,245,1166,267,1234,245.3C1302.9,224,1371,160,1406,128L1440,96L1440,0L1405.7,0C1371.4,0,1303,0,1234,0C1165.7,0,1097,0,1029,0C960,0,891,0,823,0C754.3,0,686,0,617,0C548.6,0,480,0,411,0C342.9,0,274,0,206,0C137.1,0,69,0,34,0L0,0Z"></path></svg>